<?xml version="1.0" standalone="no"?>
<!DOCTYPE svg PUBLIC "-//W3C//DTD SVG 20010904//EN"
 "http://www.w3.org/TR/2001/REC-SVG-20010904/DTD/svg10.dtd">
<svg version="1.0" xmlns="http://www.w3.org/2000/svg"
 width="1042.000000pt" height="1042.000000pt" viewBox="0 0 1042.000000 1042.000000"
 preserveAspectRatio="xMidYMid meet">

<g transform="translate(0.000000,1042.000000) scale(0.100000,-0.100000)"
fill="#000000" stroke="none">
<path d="M4843 9024 c-757 -75 -1443 -355 -2039 -832 -133 -106 -366 -331
-483 -467 -510 -589 -806 -1249 -913 -2035 -30 -220 -32 -697 -5 -915 67 -536
213 -988 464 -1434 534 -950 1444 -1629 2498 -1866 682 -153 1421 -113 2080
112 1263 432 2217 1499 2505 2803 27 122 56 314 70 460 17 173 14 598 -5 773
-180 1696 -1478 3078 -3157 3362 -313 53 -718 69 -1015 39z m652 -214 c627
-46 1283 -283 1791 -646 357 -255 698 -605 928 -954 321 -487 503 -982 583
-1585 22 -166 24 -629 5 -785 -38 -296 -91 -537 -173 -782 -309 -930 -1019
-1718 -1916 -2128 -1492 -681 -3248 -278 -4289 986 -442 536 -705 1150 -801
1864 -22 165 -25 677 -5 830 61 465 176 851 366 1228 344 684 922 1259 1612
1605 389 195 874 332 1299 365 158 13 437 14 600 2z"/>
<path d="M4545 6379 c-418 -57 -708 -246 -867 -564 -78 -156 -102 -272 -102
-500 0 -133 5 -196 22 -292 94 -519 401 -1089 796 -1478 237 -234 479 -377
687 -408 68 -10 87 -8 162 10 210 52 420 185 643 407 428 428 741 1046 805
1591 14 122 6 354 -16 445 -77 322 -282 567 -579 691 -220 91 -383 113 -776
104 -157 -4 -289 -6 -295 -6 -129 7 -428 7 -480 0z m-471 -401 c21 -30 20 -63
-5 -114 -30 -63 -81 -104 -128 -104 -51 0 -65 18 -58 75 12 113 144 211 191
143z m-213 -298 c24 -13 25 -57 3 -160 -30 -139 -9 -378 52 -590 59 -208 191
-477 326 -664 32 -44 36 -77 12 -101 -44 -43 -87 -3 -201 187 -211 354 -306
660 -307 993 -1 180 16 288 50 322 26 26 36 28 65 13z"/>
</g>
</svg>
